<?xml version="1.0" encoding="utf-8"?>
<!-- Generator: Adobe Illustrator 23.0.1, SVG Export Plug-In . SVG Version: 6.00 Build 0)  -->
<svg version="1.1" id="Layer_1" xmlns="http://www.w3.org/2000/svg" xmlns:xlink="http://www.w3.org/1999/xlink" x="0px" y="0px"
	 viewBox="0 0 890.2 700" style="enable-background:new 0 0 890.2 700;" xml:space="preserve">
<style type="text/css">
	.st0{fill:#232323;}
</style>
<polygon class="st0" points="890.2,275.6 0,275.6 103.5,125 786.6,125 "/>
<path class="st0" d="M779.8,275.6v383c0,20.6-16.6,37.4-37.2,37.4H544V446.9c0-17.7-14.3-32-32-32H376.4c-17.7,0-32,14.3-32,32V696
	H144.3c-20.6,0-37.4-16.8-37.4-37.4v-383H779.8z"/>
<path class="st0" d="M752.7,125H137.5V66c0-17.8,14.5-32.3,32.3-32.3h550.6c17.8,0,32.3,14.5,32.3,32.3V125z"/>
</svg>
