<?xml version="1.0" encoding="utf-8"?>
<!-- Generator: Adobe Illustrator 23.0.1, SVG Export Plug-In . SVG Version: 6.00 Build 0)  -->
<svg version="1.1" id="Layer_1" xmlns="http://www.w3.org/2000/svg" xmlns:xlink="http://www.w3.org/1999/xlink" x="0px" y="0px"
	 viewBox="0 0 991.1 983" style="enable-background:new 0 0 991.1 983;" xml:space="preserve">
<style type="text/css">
	.st0{fill:none;stroke:#200E29;stroke-width:10;stroke-miterlimit:10;}
	.st1{fill:#232323;stroke:#200E29;stroke-width:10;stroke-miterlimit:10;}
	.st2{fill:#FFFFFF;stroke:#FFFFFF;stroke-miterlimit:10;}
	.st3{fill:#FFFFFF;stroke:#FFFFFF;stroke-width:4;stroke-miterlimit:10;}
</style>
<path id="XMLID_48_" class="st0" d="M495.1,37.5c0,0-71.8,4.2-113.6-25.9c-1-0.7-2.2,0-2.2,1.2v116.9h115.9H611V12.8
	c0-1.2-1.2-1.7-2.2-1.2C566.6,41.7,495.1,37.5,495.1,37.5z"/>
<path id="XMLID_40_" class="st1" d="M818.1,93.8c0,0-160.5-68.8-201.1-82c-3.2-1-6.7,0.5-7.7,3.7C602.1,34.7,572.2,97,495.4,97
	S388.5,34.5,381,15.6c-1.2-3.2-4.7-4.7-7.7-3.7c-40.6,13.5-201.1,82-201.1,82C118.6,160.4,6.7,331.1,6.7,331.1l153.5,124.4
	l65.3-55.3v568.4c11,13.5,269.4,14.5,269.4,14.5s258.4-1,269.4-14.5V400.1l65.3,55.3L983.1,331C983.3,331.1,871.4,160.4,818.1,93.8z
	"/>
<g id="XMLID_2_">
	<g id="XMLID_15_">
		<polygon class="st2" points="183.1,109.3 181.1,110 177.9,101.8 179.9,101.1 		"/>
		<polygon class="st3" points="183.1,109.3 181.1,110 177.9,101.8 179.9,101.1 		"/>
	</g>
	<g id="XMLID_563_">
		<polygon class="st2" points="189.3,126.5 187.1,127.2 184.1,119 186.4,118.2 		"/>
		<polygon class="st3" points="189.3,126.5 187.1,127.2 184.1,119 186.4,118.2 		"/>
	</g>
	<g id="XMLID_565_">
		<polygon class="st2" points="194.8,143.9 192.6,144.7 190.1,136.2 192.3,135.4 		"/>
		<polygon class="st3" points="194.8,143.9 192.6,144.7 190.1,136.2 192.3,135.4 		"/>
	</g>
	<g id="XMLID_567_">
		<polygon class="st2" points="199.8,161.4 197.6,161.9 195.3,153.4 197.6,152.9 		"/>
		<polygon class="st3" points="199.8,161.4 197.6,161.9 195.3,153.4 197.6,152.9 		"/>
	</g>
	<g id="XMLID_569_">
		<polygon class="st2" points="204.3,179.1 202.1,179.6 199.8,171.1 202.1,170.6 		"/>
		<polygon class="st3" points="204.3,179.1 202.1,179.6 199.8,171.1 202.1,170.6 		"/>
	</g>
	<g id="XMLID_571_">
		<polygon class="st2" points="208.5,196.7 206.3,197.2 204.3,188.5 206.5,188 		"/>
		<polygon class="st3" points="208.5,196.7 206.3,197.2 204.3,188.5 206.5,188 		"/>
	</g>
	<g id="XMLID_573_">
		<polygon class="st2" points="212,214.4 209.8,214.9 208,206.2 210.3,205.7 		"/>
		<polygon class="st3" points="212,214.4 209.8,214.9 208,206.2 210.3,205.7 		"/>
	</g>
	<g id="XMLID_575_">
		<polygon class="st2" points="215.3,232.4 213,232.9 211.5,224.2 213.8,223.7 		"/>
		<polygon class="st3" points="215.3,232.4 213,232.9 211.5,224.2 213.8,223.7 		"/>
	</g>
	<g id="XMLID_577_">
		<polygon class="st2" points="218.3,250.3 216,250.6 214.8,241.9 217,241.6 		"/>
		<polygon class="st3" points="218.3,250.3 216,250.6 214.8,241.9 217,241.6 		"/>
	</g>
	<g id="XMLID_579_">
		<polygon class="st2" points="220.7,268.3 218.5,268.5 217.3,259.8 219.5,259.5 		"/>
		<polygon class="st3" points="220.7,268.3 218.5,268.5 217.3,259.8 219.5,259.5 		"/>
	</g>
	<g id="XMLID_581_">
		<polygon class="st2" points="222.7,286.5 220.5,286.7 219.5,278 221.7,277.7 		"/>
		<polygon class="st3" points="222.7,286.5 220.5,286.7 219.5,278 221.7,277.7 		"/>
	</g>
	<g id="XMLID_583_">
		<polygon class="st2" points="224.5,304.4 222.2,304.7 221.5,295.9 223.7,295.7 		"/>
		<polygon class="st3" points="224.5,304.4 222.2,304.7 221.5,295.9 223.7,295.7 		"/>
	</g>
	<g id="XMLID_585_">
		<polygon class="st2" points="226,322.6 223.7,322.8 223,314.1 225.2,313.9 		"/>
		<polygon class="st3" points="226,322.6 223.7,322.8 223,314.1 225.2,313.9 		"/>
	</g>
	<g id="XMLID_587_">
		<polygon class="st2" points="227.2,340.8 225,341 224.5,332.3 226.7,332.1 		"/>
		<polygon class="st3" points="227.2,340.8 225,341 224.5,332.3 226.7,332.1 		"/>
	</g>
	<g id="XMLID_589_">
		<polygon class="st2" points="228,359 225.7,359 225.5,350.3 227.7,350.3 		"/>
		<polygon class="st3" points="228,359 225.7,359 225.5,350.3 227.7,350.3 		"/>
	</g>
	<g id="XMLID_591_">
		<polygon class="st2" points="228.2,376.9 226,376.9 225.7,368.2 228,368.2 		"/>
		<polygon class="st3" points="228.2,376.9 226,376.9 225.7,368.2 228,368.2 		"/>
	</g>
	<g id="XMLID_593_">
		<rect x="226.2" y="386.4" class="st2" width="2.2" height="8.7"/>
		<rect x="226.2" y="386.4" class="st3" width="2.2" height="8.7"/>
	</g>
</g>
<g id="XMLID_10_">
	<g id="XMLID_17_">
		<polygon class="st2" points="810.4,101.1 812.4,101.8 809.1,110 807.1,109.3 		"/>
		<polygon class="st3" points="810.4,101.1 812.4,101.8 809.1,110 807.1,109.3 		"/>
	</g>
	<g id="XMLID_530_">
		<polygon class="st2" points="803.6,118.2 805.9,119 802.9,127.2 800.7,126.5 		"/>
		<polygon class="st3" points="803.6,118.2 805.9,119 802.9,127.2 800.7,126.5 		"/>
	</g>
	<g id="XMLID_532_">
		<polygon class="st2" points="797.9,135.4 800.2,136.2 797.7,144.7 795.4,143.9 		"/>
		<polygon class="st3" points="797.9,135.4 800.2,136.2 797.7,144.7 795.4,143.9 		"/>
	</g>
	<g id="XMLID_534_">
		<polygon class="st2" points="792.7,152.9 794.9,153.4 792.7,161.9 790.4,161.4 		"/>
		<polygon class="st3" points="792.7,152.9 794.9,153.4 792.7,161.9 790.4,161.4 		"/>
	</g>
	<g id="XMLID_536_">
		<polygon class="st2" points="787.9,170.3 790.2,170.8 787.9,179.3 785.7,179.1 		"/>
		<polygon class="st3" points="787.9,170.3 790.2,170.8 787.9,179.3 785.7,179.1 		"/>
	</g>
	<g id="XMLID_538_">
		<polygon class="st2" points="783.7,188 785.9,188.5 784,197.2 781.7,196.7 		"/>
		<polygon class="st3" points="783.7,188 785.9,188.5 784,197.2 781.7,196.7 		"/>
	</g>
	<g id="XMLID_540_">
		<polygon class="st2" points="779.7,206 782,206.5 780.2,215.2 778,214.7 		"/>
		<polygon class="st3" points="779.7,206 782,206.5 780.2,215.2 778,214.7 		"/>
	</g>
	<g id="XMLID_542_">
		<polygon class="st2" points="776.2,223.7 778.5,224.2 777,232.9 774.7,232.4 		"/>
		<polygon class="st3" points="776.2,223.7 778.5,224.2 777,232.9 774.7,232.4 		"/>
	</g>
	<g id="XMLID_544_">
		<polygon class="st2" points="773.2,241.6 775.5,241.9 774.2,250.6 772,250.3 		"/>
		<polygon class="st3" points="773.2,241.6 775.5,241.9 774.2,250.6 772,250.3 		"/>
	</g>
	<g id="XMLID_546_">
		<polygon class="st2" points="770.5,259.5 772.7,259.8 771.5,268.5 769.3,268.3 		"/>
		<polygon class="st3" points="770.5,259.5 772.7,259.8 771.5,268.5 769.3,268.3 		"/>
	</g>
	<g id="XMLID_548_">
		<polygon class="st2" points="768.3,277.7 770.5,278 769.5,286.7 767.3,286.5 		"/>
		<polygon class="st3" points="768.3,277.7 770.5,278 769.5,286.7 767.3,286.5 		"/>
	</g>
	<g id="XMLID_550_">
		<polygon class="st2" points="766.3,295.7 768.5,295.9 767.8,304.7 765.5,304.4 		"/>
		<polygon class="st3" points="766.3,295.7 768.5,295.9 767.8,304.7 765.5,304.4 		"/>
	</g>
	<g id="XMLID_552_">
		<polygon class="st2" points="764.8,313.9 767,314.1 766.3,322.8 764,322.6 		"/>
		<polygon class="st3" points="764.8,313.9 767,314.1 766.3,322.8 764,322.6 		"/>
	</g>
	<g id="XMLID_554_">
		<polygon class="st2" points="763.5,331.8 765.8,332.1 765.3,340.8 763,340.5 		"/>
		<polygon class="st3" points="763.5,331.8 765.8,332.1 765.3,340.8 763,340.5 		"/>
	</g>
	<g id="XMLID_556_">
		<polygon class="st2" points="762.5,350 764.8,350 764.5,358.7 762.3,358.7 		"/>
		<polygon class="st3" points="762.5,350 764.8,350 764.5,358.7 762.3,358.7 		"/>
	</g>
	<g id="XMLID_558_">
		<polygon class="st2" points="762,368.2 764.3,368.2 764,376.9 761.8,376.9 		"/>
		<polygon class="st3" points="762,368.2 764.3,368.2 764,376.9 761.8,376.9 		"/>
	</g>
	<g id="XMLID_560_">
		<rect x="761.8" y="386.4" class="st2" width="2.2" height="8.7"/>
		<rect x="761.8" y="386.4" class="st3" width="2.2" height="8.7"/>
	</g>
</g>
</svg>
